<svg xmlns="http://www.w3.org/2000/svg" width="128" height="128"><g fill="none" fill-rule="evenodd"><path fill="#EF1515" fill-rule="nonzero" d="M5.35 61.05c1.19.05 2.39.12 3.58.15 1.094.06 2.191-.03 3.26-.27a3 3 0 0 0 2.28-3.45 2.748 2.748 0 0 0-2.81-2.82 3.2 3.2 0 0 0-1.32.1v6H8.67v-4.82c0-.94-.23-1.14-1.2-1.23l-.37-.05a.35.35 0 0 1-.1-.45.443.443 0 0 1 .15-.08 27.995 27.995 0 0 1 5.86 0A3.651 3.651 0 0 1 16.16 59a3.821 3.821 0 0 1-2.72 2.28 12.1 12.1 0 0 1-5.64.31c-.83-.12-1.64-.29-2.47-.43l.02-.11zm3.28 1.14 1.66.08v2.91c0 1 .33 1.27 1.27 1.38h.53a.41.41 0 0 1 0 .54 35.554 35.554 0 0 0-4.95 0c-.14-.1-.22-.25-.14-.39a.301.301 0 0 1 .26-.13c1.14-.15 1.28-.25 1.35-1.38.07-1.13.02-1.96.02-3.01z"/><path fill="#000" fill-rule="nonzero" d="M63 69.21h.86v3.06c0 1.3-.63 1.74-1.57 1.74-.245 0-.488-.041-.72-.12l.1-.69c.175.051.357.078.54.08.49 0 .79-.22.79-1v-3.07zm5.14 3.7v1h-.75v-.52a1.21 1.21 0 0 1-1.09.6c-.62 0-1.19-.37-1.19-1.49v-2h.86v1.85c0 .57.18.94.64.94a.74.74 0 0 0 .66-.47 1.028 1.028 0 0 0 0-.26v-2.04h.87v2.39zm1.24.23c.266.15.565.231.87.24.38 0 .55-.15.55-.38s-.14-.35-.56-.49c-.67-.23-.95-.6-.94-1 .017-.318.166-.614.41-.818.246-.203.564-.294.88-.252.311-.004.62.064.9.2l-.16.61a1.618 1.618 0 0 0-.73-.19c-.3 0-.47.14-.47.35 0 .21.16.33.59.48.62.22.91.54.91 1 0 .46-.48 1.11-1.38 1.11a2.2 2.2 0 0 1-1-.24l.13-.62zm4.3-3.6v1h.82v.64h-.82v1.51c0 .41.11.63.44.63.113.014.227.014.34 0v.66c-.202.057-.41.084-.62.08a1.002 1.002 0 0 1-.74-.28 1.331 1.331 0 0 1-.27-1v-1.62h-.49v-.64h.49v-.77l.85-.21zm3.62 2.11v-1.13h.7v.52a1.33 1.33 0 0 1 1.17-.6 1.552 1.552 0 0 1 1.43 1.74A1.62 1.62 0 0 1 79.14 74c-.39.032-.77-.142-1-.46v1.77h-.84v-3.66zm.86.85c-.01.08-.01.16 0 .24a.78.78 0 0 0 .76.6c.55 0 .87-.45.87-1.13 0-.68-.3-1.09-.85-1.09a.8.8 0 0 0-.77.64c-.01.07-.01.14 0 .21l-.01.53zm4.2-.03a.93.93 0 0 0 1 .88c.34.014.68-.04 1-.16l.12.6c-.38.146-.784.217-1.19.21a1.613 1.613 0 0 1-1.75-1.72 1.686 1.686 0 0 1 .429-1.282c.315-.35.76-.552 1.231-.558a1.48 1.48 0 0 1 1.47 1.66c.007.123.007.247 0 .37h-2.31zm1.5-.61a.732.732 0 0 0-.71-.83.84.84 0 0 0-.79.83h1.5zm1.86-.24v-1.1h.75v.65a1 1 0 0 1 .93-.73h.2v.81h-.25a.759.759 0 0 0-.77.65 1.028 1.028 0 0 0 0 .26v1.77h-.86v-2.31zm3.14 2.31v-2.77h-.46v-.64h.46v-.15a1.601 1.601 0 0 1 .41-1.16 1.3 1.3 0 0 1 .89-.33c.187-.005.373.022.55.08l-.06.67a.904.904 0 0 0-.36-.06c-.43 0-.58.35-.58.77v.18h.75v.64h-.74v2.77h-.86zm3.02-1.46a.928.928 0 0 0 1.05.88c.32.008.64-.046.94-.16l.13.6c-.38.146-.784.217-1.19.21a1.61 1.61 0 0 1-1.76-1.72 1.692 1.692 0 0 1 1.67-1.84 1.488 1.488 0 0 1 1.47 1.66c.008.123.008.247 0 .37h-2.31zm1.5-.61a.74.74 0 0 0-.71-.83.84.84 0 0 0-.79.83h1.5zm4.36 1.96a2.348 2.348 0 0 1-1 .18A1.639 1.639 0 0 1 95 72.26a1.76 1.76 0 0 1 1.9-1.82c.284-.001.566.053.83.16l-.15.65a1.447 1.447 0 0 0-.66-.14 1.11 1.11 0 0 0 0 2.21c.233.005.465-.04.68-.13l.14.63zm2.08-4.28v1h.82v.64h-.82v1.51c0 .41.12.63.45.63.11.014.22.014.33 0v.66c-.198.034-.4.04-.6.02a1.002 1.002 0 0 1-.74-.28 1.383 1.383 0 0 1-.27-1v-1.56h-.49v-.64h.5v-.77l.82-.21z"/><circle cx="118.62" cy="54.05" r="4.07" fill="#EF1515" fill-rule="nonzero"/><path fill="#FFF" fill-rule="nonzero" d="M119.77 55.13c.12-.22.8-1.61.8-1.61.173-.276.295-.58.36-.9h.77c.03.034.03.086 0 .12h-.09c-.3 0-.34.12-.33.45v2.07c0 .24 0 .36.23.38h.15v.11h-1.12a.07.07 0 0 1-.027-.055.07.07 0 0 1 .027-.055h.13c.23 0 .23-.1.23-.4v-2c0 .05-1.23 2.51-1.23 2.51l-.84-1.85-.3-.68c0 .29-.08 1.58-.08 2 0 .42 0 .43.21.44h.18v.11h-1a.108.108 0 0 1 0-.11h.11c.2 0 .26 0 .29-.38.03-.38.12-1.86.13-2.12.01-.26 0-.36-.31-.4h-.08v-.12h.76c.02.276.105.544.25.78 0 0 .66 1.5.78 1.71zm-4.59-.8h.86c.258.01.517-.01.77-.06a.73.73 0 0 0 .55-.83.66.66 0 0 0-.67-.67.905.905 0 0 0-.32 0v1.43H116v-1.15c0-.23-.06-.27-.29-.3h-.09v-.11a5.875 5.875 0 0 1 1.39 0 .86.86 0 0 1 .76 1.15.891.891 0 0 1-.65.54 2.767 2.767 0 0 1-1.34.08l-.59-.1-.01.02zm.82.28h.4v.69c0 .23.08.3.3.33h.13v.13h-1.17v-.11a.07.07 0 0 1 .06 0c.27 0 .3-.06.32-.33.02-.27-.04-.46-.04-.71z"/><path d="M0 0h128v128H0z"/><path fill="#EF1515" fill-rule="nonzero" d="M17.14 61.69c-.51 0-.53 0-.53.53 0 2 1.15 3.64 3.24 3.64a2.09 2.09 0 0 0 1.79-1 .257.257 0 0 1 .233.027c.07.045.113.12.117.203A3.41 3.41 0 0 1 18.93 67a3.51 3.51 0 0 1-2.83-1.29 4.173 4.173 0 0 1-.82-2.54c0-2.39 1.58-4.4 3.92-4.4a2.547 2.547 0 0 1 2.8 2.28c.012.17-.016.342-.08.5-.05.12-.33.14-1.15.14h-3.63zm1.21-.58c1.44 0 1.87-.08 2-.2.13-.12.12-.12.12-.37 0-.55-.37-1.23-1.5-1.23A2.301 2.301 0 0 0 16.82 61s0 .1.14.1l1.39.01zm5.89-.02c0-.76 0-.86-.53-1.21l-.18-.12a.28.28 0 0 1 0-.35c.692-.28 1.36-.615 2-1 .1 0 .16.06.16.14v1.13c0 .1.02.16.06.18a3.898 3.898 0 0 1 2.14-1.17.81.81 0 0 1 .88.78.858.858 0 0 1-.84.89.75.75 0 0 1-.43-.13 1.527 1.527 0 0 0-.85-.31.86.86 0 0 0-.71.39c-.21.47-.297.987-.25 1.5v2.69c0 1.4 0 1.64.78 1.7h.7a.339.339 0 0 1 0 .49c-.91 0-1.48-.06-2.16-.06-.68 0-1.29 0-1.8.06a.35.35 0 0 1 0-.49h.37c.72-.12.74-.3.74-1.7l-.08-3.41zm8.34-1.27c-.33 0-.33 0-.33.56v4.12c0 1.4 0 1.64.74 1.7h.7a.35.35 0 0 1 0 .49c-.88 0-1.45-.06-2.13-.06-.68 0-1.29 0-1.87.06a.339.339 0 0 1 0-.49h.45c.72-.1.74-.3.74-1.7v-4.12c0-.52 0-.56-.39-.56h-.68a.27.27 0 0 1-.06-.37l.84-.41a.459.459 0 0 0 .29-.39 8.854 8.854 0 0 1 .6-3.43 3.841 3.841 0 0 1 3.51-2.48c1 0 1.91.47 1.91 1.17a.74.74 0 0 1-.74.7.55.55 0 0 1-.46-.23 2.2 2.2 0 0 0-1.57-.86 1.5 1.5 0 0 0-1.38 1.07 10.38 10.38 0 0 0-.43 3.3v.56c0 .53 0 .55.33.55h2.23a.61.61 0 0 1-.14.82h-2.16z"/><path fill="#EF1515" fill-rule="nonzero" d="M36.76 61.69c-.51 0-.53 0-.53.53 0 2 1.15 3.64 3.24 3.64a2.09 2.09 0 0 0 1.79-1 .257.257 0 0 1 .233.027c.07.045.113.12.117.203A3.4 3.4 0 0 1 38.55 67a3.51 3.51 0 0 1-2.83-1.29 4.176 4.176 0 0 1-.81-2.54c0-2.39 1.57-4.4 3.92-4.4a2.55 2.55 0 0 1 2.76 2.32c.008.17-.016.34-.07.5-.06.12-.34.14-1.16.14l-3.6-.04zm1.24-.58c1.44 0 1.87-.08 2-.2.13-.12.12-.12.12-.37 0-.55-.37-1.23-1.5-1.23A2.29 2.29 0 0 0 36.45 61s0 .1.13.1l1.42.01zm10.71-2.05c.197.21.301.492.29.78 0 .35-.19.72-.42.72a.35.35 0 0 1-.28-.14 2.68 2.68 0 0 0-1.95-1c-1.36 0-2.69 1.07-2.69 3.14a3.213 3.213 0 0 0 3.14 3.33 2.379 2.379 0 0 0 2.2-1.2.32.32 0 0 1 .35.28 3.571 3.571 0 0 1-3.26 2 3.79 3.79 0 0 1-2.67-1 3.879 3.879 0 0 1-1.13-2.88A4.338 4.338 0 0 1 47 58.73a4.677 4.677 0 0 1 1.71.33zm4.16.76c-.33 0-.35.06-.35.47v3.64c0 1.13.13 2.17 1.42 2.17.181 0 .361-.034.53-.1.17-.06.43-.27.48-.27.05 0 .24.21.2.33a2.692 2.692 0 0 1-2 .9c-1.68 0-2-.94-2-2.11v-4.47c0-.52 0-.56-.41-.56h-.54a.32.32 0 0 1-.06-.41c.448-.128.87-.331 1.25-.6.324-.348.6-.738.82-1.16.09 0 .33 0 .41.1v.88c0 .35 0 .37.35.37h2.16a.61.61 0 0 1 0 .82h-2.26zM69 61.48c.45.91.87 1.81 1.34 2.67.53-.92 1-1.93 1.5-2.93l1.86-3.72c.87-1.78 1.44-2.85 1.48-3.75.485.045.973.065 1.46.06.49 0 1.13 0 1.74-.06.1.148.1.342 0 .49h-.41c-1.23.12-1.39.49-1.37 1.85 0 2.07.06 5.68.21 8.49.06 1 0 1.5 1 1.58h.62a.37.37 0 0 1 0 .49c-.8 0-1.6-.06-2.31-.06s-1.56 0-2.35.06a.36.36 0 0 1 0-.49h.56c1-.1 1-.41 1-1.66l-.06-8.13c-.14.21-.88 1.77-1.27 2.53l-1.9 3.45c-.88 1.72-1.76 3.55-2.11 4.45a.22.22 0 0 1-.19.08.242.242 0 0 1-.18-.08c-.33-1-1.27-2.95-1.72-3.9l-1.75-3.76c-.41-.9-.82-1.91-1.25-2.81-.08 1.21-.13 2.34-.19 3.47-.06 1.13-.14 2.92-.14 4.58 0 1.44.12 1.76.88 1.82h.74c.14.12.12.43 0 .49-.66 0-1.42-.06-2.16-.06-.74 0-1.33 0-2 .06a.378.378 0 0 1 0-.49h.43c.82-.12 1.09-.24 1.21-1.6.12-1.36.21-2.36.33-4.29.09-1.62.17-3.28.21-4.35 0-1.23-.12-1.52-1.31-1.68h-.31a.391.391 0 0 1 .08-.49c.59 0 1.05.06 1.54.06s1 0 1.62-.06a7.451 7.451 0 0 0 1 3.22L69 61.48zm18.12 1.28A4.002 4.002 0 0 1 83 67a3.858 3.858 0 0 1-4-4 4.1 4.1 0 0 1 4.16-4.21 3.904 3.904 0 0 1 2.822 1.145 3.904 3.904 0 0 1 1.138 2.825zm-4.2-3.45c-1.28 0-2.24 1.23-2.24 3.38 0 1.77.8 3.68 2.52 3.68s2.24-1.79 2.24-3.29c0-1.66-.66-3.77-2.52-3.77zm5.62 1.78c0-.76 0-.86-.53-1.21l-.17-.12a.26.26 0 0 1 0-.35c.7-.26 1.371-.596 2-1a.221.221 0 0 1 .21.14v.92a.21.21 0 0 0 .22.21 5.301 5.301 0 0 1 2.73-1 2.16 2.16 0 0 1 2.28 2.41v3.41c0 1.4 0 1.6.74 1.7h.43a.339.339 0 0 1 0 .49c-.58 0-1.15-.06-1.83-.06-.68 0-1.29 0-1.82.06a.35.35 0 0 1 0-.49h.37c.72-.12.74-.3.74-1.7v-2.91a1.69 1.69 0 0 0-1.84-1.93 2.08 2.08 0 0 0-1.65.69 1.6 1.6 0 0 0-.3 1.17v3c0 1.4 0 1.58.75 1.7h.35a.36.36 0 0 1 0 .49c-.53 0-1.1-.06-1.78-.06-.68 0-1.28 0-1.83.06a.339.339 0 0 1 0-.49h.41c.72-.1.74-.3.74-1.7l-.22-3.43zm10.46.6c-.51 0-.53 0-.53.53 0 2 1.15 3.64 3.24 3.64a2.09 2.09 0 0 0 1.79-1 .257.257 0 0 1 .233.027c.07.045.113.12.117.203a3.408 3.408 0 0 1-3.04 1.91A3.51 3.51 0 0 1 98 65.67a4.173 4.173 0 0 1-.82-2.54c0-2.39 1.58-4.4 3.92-4.4a2.553 2.553 0 0 1 2.77 2.32c.012.17-.016.342-.08.5-.06.12-.33.14-1.15.14H99zm1.2-.58c1.45 0 1.88-.08 2-.2.12-.12.12-.12.12-.37 0-.55-.37-1.23-1.5-1.23A2.3 2.3 0 0 0 98.7 61s0 .1.14.1l1.36.01zm4.47 9.59a.721.721 0 0 1 .78-.78h.37a.728.728 0 0 0 .65-.35c.443-.687.821-1.413 1.13-2.17.1-.267.164-.546.19-.83a3.797 3.797 0 0 0-.33-1.35l-1.52-4.17c-.33-.92-.47-1.39-1.15-1.52l-.49-.1c-.12-.1-.1-.43.06-.49.62 0 1.21.06 1.85.06.64 0 1.07 0 1.7-.06.15.06.17.39 0 .49l-.49.1c-.27 0-.43.11-.43.25.15.622.34 1.233.57 1.83l.62 1.8c.159.472.35.933.57 1.38.277-.46.518-.942.72-1.44l.66-1.54c.303-.638.531-1.31.68-2 0-.14-.11-.28-.46-.33l-.61-.1c-.14-.1-.12-.43 0-.49.62 0 1.21.06 1.71.06s.94 0 1.49-.06a.339.339 0 0 1 0 .49l-.34.06c-.64.11-1 .68-1.65 2.06l-.95 2.3c-.65 1.3-2.25 4.7-3.2 6.82a1.3 1.3 0 0 1-1.25.92.781.781 0 0 1-.88-.84z"/></g></svg>