<svg xmlns="http://www.w3.org/2000/svg" width="72" height="72"><g fill="none" fill-rule="evenodd"><path d="M0 0h72v72H0z"/><g fill-rule="nonzero" transform="translate(17.438 7.875)"><ellipse cx="18.257" cy="18.242" fill="#FFF" opacity=".5" rx="18.233" ry="18.242"/><path fill="#E21624" d="M14.013 24.414a.642.642 0 0 0-.282-.034.23.23 0 0 0-.215.173.548.548 0 0 0 .024.263c.029.086.062.167.096.248.03.073.08.135.143.182.206.13.402-.086.45-.272 0-.067 0-.134.028-.201a.355.355 0 0 0-.033-.187.373.373 0 0 0-.21-.172z"/><path fill="#E21624" d="M14.339 25.275a.684.684 0 0 0 .23-.555.798.798 0 0 0-.158-.316.66.66 0 0 0-.479-.253.725.725 0 0 0-.325.052c.166-.17.4-.254.636-.23a.796.796 0 0 1 .264 1.407c-.039 0-.092.086-.14.082-.047-.005-.043-.13-.043-.13l.015-.057zM11.248 7.392v-.13c.002.042.002.083 0 .125v.005zm-5.004 4.315s-.412-.655.631-2.038c-.108.53-.05 1.08.168 1.574.216.383.294.83.22 1.263.337-.319.499-.78.435-1.24-.148-.698-.732-.99 0-2.784-.577.52-1.1 1.097-1.56 1.723-.21.483-.425.799.106 1.502z"/><path fill="#E21624" d="M7.722 10.009s.072-1.21 1.646-1.986c-.21.105-.402.852-.478 1.081a5.442 5.442 0 0 0-.206 1.235 2.605 2.605 0 0 1-.852 2.019c.125-.091.36-.12.503-.206a2.198 2.198 0 0 0 1.028-1.622c.077-.694-.086-1.473.34-2.086.249-.359.564-.957 1.038-1.076 0 0-3.263.024-3.019 2.64z"/><path fill="#E21624" d="M18.248.737a17.506 17.506 0 0 1 12.376 29.887 17.509 17.509 0 0 1-29.29-7.848 17.51 17.51 0 0 1 4.532-16.91A17.376 17.376 0 0 1 18.248.735m0-.736A18.245 18.245 0 0 0 5.34 31.14a18.243 18.243 0 0 0 31.144-12.898C36.485 8.17 28.32.002 18.248 0z"/><path fill="#E21624" d="M35.26 18.257c.027-9.24-7.326-16.812-16.563-17.056h-1.225c-9 .426-16.099 7.81-16.17 16.821v1.125c0 .11 0 .22.024.325v.072c0 .124 0 .243.033.363v.048l.043.383v.043c0 .124.034.253.053.373a.375.375 0 0 1 0 .067l.057.35a.602.602 0 0 1 0 .104l.058.297c0 .057.024.115.038.172.014.058.029.149.048.225.019.077.038.172.062.258.024.087 0 .087.034.134.028.12.062.24.095.36v.023a16.963 16.963 0 0 0 16.329 12.44h.09C27.62 35.17 35.21 27.61 35.26 18.256zm-6.908 13.017a6.116 6.116 0 0 1-1.823-.177 2.94 2.94 0 0 1-1.46-.956c-.387-.479-.717-1.01-1.08-1.536a10.096 10.096 0 0 0-1.23-1.498 7.181 7.181 0 0 0-1.56-1.167 6.303 6.303 0 0 0-1.798-.689 5.495 5.495 0 0 0-1.914-.048 5.275 5.275 0 0 0-1.799.646 5.91 5.91 0 0 1 1.818-.478c.62-.046 1.244.01 1.847.167a6.96 6.96 0 0 1 3.148 1.852c.431.443.823.923 1.172 1.435.35.538.728 1.058 1.134 1.555.22.253.474.473.756.655.284.178.596.308.923.383a5.14 5.14 0 0 0 1.574.105c-.182.134-.364.259-.545.383-.206.074-.42.122-.637.143a7.144 7.144 0 0 0-1.555.589 1.149 1.149 0 0 1-1.612-.479.356.356 0 0 0-.35-.196c-.096.01-.194.01-.291 0-.43-.067-.478-.646-.813-.713-.335-.067-.751-.148-.957-.54-.062-.125-.13-.187-.263-.13-.383.13-.748.306-1.086.527a.606.606 0 0 0-.292.622c.065.276.31.473.593.478.39.042.73.285.895.641a.791.791 0 0 1 .115.862.876.876 0 0 1-.957.478c.204-.091.38-.237.507-.421a.479.479 0 0 0 0-.622c-.168-.215-.302-.067-.45.029-.23.148-.378 0-.478-.173a.825.825 0 0 0-.335-.325c-.522-.277-.885-.072-.89.55 0 .278-.057.479-.325.57-.134.038-.335-.12-.326.177a.48.48 0 0 0 .33.478c.097.012.195.012.292 0-.316.258-.411.287-.646.148a.823.823 0 0 1-.387-.87c.122-.56.374-1.083.737-1.526-.555-.063-.732.349-.91.636-.176.287-.277.478-.645.296-.153-.086-.278 0-.364.144a.808.808 0 0 0 .546 1.186c-.34.173-.383.187-.627-.028a1.058 1.058 0 0 1-.421-1.081c.092-.494.403-.918.847-1.153.23-.115.435-.283.655-.417.086-.052.182-.1.153-.215-.029-.115-.129-.1-.23-.1-.363.023-.631-.03-.478-.508.038-.129-.086-.167-.182-.143-.296.062-.607.134-.708.478 0 .091.053.235-.139.206-.19-.029-.124-.167-.114-.268a1.057 1.057 0 0 1 1.349-.851c.267.07.505.225.68.44a.477.477 0 0 0 .812 0 4.128 4.128 0 0 1 1.436-.871c.397-.177.66-.411.512-.847-.115-.335-.058-.799-.541-.918h-.043c-.096-.512-.68-.565-.914-1a1.124 1.124 0 0 0-.957-.608c-.387 0-.722-.11-1.047.215-.106.11-.388.039-.646.053a.627.627 0 0 0 .794.177c.325-.105.33.048.258.282-.143.326-.37.607-.66.814-.32.277-.306.478.096.602.1.034.253.039.249.187-.005.148-.14.21-.268.244-.34.086-.737.081-.747.588 0 .03-.081.087-.1.077-.522-.263-.369.21-.479.421-.11.21-.062.426-.401.234-.34-.19-.45 0-.479.321.017.23-.02.462-.11.675-.158 0-.187-.115-.21-.22a1.59 1.59 0 0 0-.608-.905 1.108 1.108 0 0 1-.407-.64c-.038-.144-.2-.403.192-.26.138.053.134-.085.134-.176 0-.172-.053-.354.067-.517.23-.029.148.268.363.292.106-.324.286-.62.526-.861.132-.185.23-.39.292-.608.106-.325.182-.689-.153-.928a.866.866 0 0 0-1.038.096c-.144.095-.191.34-.445.272 0 0-.1.091-.096.14a.862.862 0 0 0 .508.712.333.333 0 0 0 .268.044.333.333 0 0 0 .21-.173c.153-.268.086-.479-.249-.617a.382.382 0 0 1 .556.239.693.693 0 0 1-.293.76.542.542 0 0 1-.68 0 2.274 2.274 0 0 1-.55-.664c-.119-.158-.2-.45-.449-.34-.249.11 0 .354 0 .55a1.094 1.094 0 0 1-.718-.32c-.11-.077-.23-.134-.344 0-.115.134-.053.21.033.301.225.244.11.526.058.78a.435.435 0 0 1-.479.325c-.263 0-.454-.13-.478-.478.21.105.392.397.603.143.21-.253.072-.435-.058-.631-.129-.196-.234-.354-.574-.23-.34.124-.478-.23-.45-.478a1.72 1.72 0 0 0-.243-.957 1.047 1.047 0 0 1 .215-1.11c.249-.316.536-.192.847 0 .65.435 1.019.383 1.67-.12.114-.086.19-.167.138-.32-.139-.407.1-.608.421-.747.847-.354.847-.349.885-1.258.196 0 .244.182.421.191 0-.157-.033-.3-.043-.444a1.976 1.976 0 0 1 1.273-2.125c.378-.172.775-.306 1.167-.478.5-.19.943-.505 1.287-.914.077-.09.139-.282.282-.191.144.09 0 .239-.028.368a1.648 1.648 0 0 1-1.048 1.048c-.478.194-.943.418-1.392.67a1.37 1.37 0 0 0-.665 1.287h.124c1.306-1.522 3.052-2.153 4.966-2.45.636-.096 1.277-.177 1.914-.301 1.335-.263 1.913-.708 2.942-2.172.02.774-.337 1.51-.957 1.976a5.26 5.26 0 0 1-2.392.846 11.93 11.93 0 0 0-3.172.823 4.792 4.792 0 0 0-2.153 1.813c-.076.12-.205.25-.148.388.057.139.258.062.392.067a4.513 4.513 0 0 0 1.823-.426c.22-.081.478-.182.44.23 0 .206.144.182.268.172.225 0 .45-.062.675-.062.225 0 .631-.1.406.402-.071.167.077.182.182.205.359.091.723.163 1.081.264.36.1.44.234.173.512-.173.177-.125.272.1.325.225.052.435.12.656.167.22.048.406.096.478.297.072.2-.144.33-.292.454l-.177.154c.238.1.493.155.751.162.33.072.713-.033.957.359.072.13.316.096.478.038.163-.057.058-.249.039-.373a10.524 10.524 0 0 1-.254-2.354c.034-.426-.287-.512-.65-.521a1.36 1.36 0 0 1-1.187-.99 1.283 1.283 0 0 1 .378-1.364.224.224 0 0 1 .258-.053 1.66 1.66 0 0 0-.239 1.02c.043.176.062.382.225.478.163.095.177-.163.282-.24.302-.22.426 0 .574.202.082.105.14.31.316.23.177-.082.048-.26.034-.393-.087-.78-.302-1.56.09-2.32a1.33 1.33 0 0 1 1.11-.828.597.597 0 0 1 .665.387c-.478-.086-.86-.105-1.157.287-.297.393-.287.622.081.924.187.12.246.367.134.56-.206.315-.13.679-.215 1.009-.055.2.053.408.248.478.125-.406.235-.803.364-1.196.11-.358.333-.67.636-.89a.618.618 0 0 1 .728-.071c.232.12.35.387.282.64-.144.025-.134-.114-.196-.171-.235-.23-.44-.1-.646.047-.206.149-.053.264.048.412a.478.478 0 0 1-.101.698 1.186 1.186 0 0 0-.35.55c-.21.646.159 1.067.838.929.33-.067.479.048.512.382 0 .168 0 .35.201.388a.478.478 0 0 0 .507-.301c.156-.34.156-.729 0-1.067a1.23 1.23 0 0 1 .144 1.66 1.36 1.36 0 0 1-1.622-.043c-.23-.21-.479-.412-.818-.263-.34.148-.35.45-.345.741.013.242.04.484.082.723.047.349.172.588.607.574a.995.995 0 0 1 .617.234c.297.235.397.105.512-.163.115-.267.13-.588.479-.598.349-.01.368.316.516.517.04.041.084.08.13.115.08-.196.148-.373.215-.55.215-.54.363-.57.784-.125.23-.268.163-.617.268-.904.077-.206.091-.478.445-.325.259.11.23-.134.278-.273.1-.287-.1-.775.478-.751.086 0 .082-.158.077-.254 0-.244 0-.478-.034-.727 0-.129 0-.325.144-.32.507 0 .268-.33.296-.555.034-.302-.387-.737.278-.866.124 0 .029-.292.024-.45 0-.364-.33-.751.186-1.067.14-.081 0-.42-.057-.64-.048-.321-.335-.685.144-.958.028 0 0-.148 0-.22-.122-.402-.22-.81-.292-1.225 0-.086-.063-.134-.144-.172-.373-.182-1.038-.478-1.225.144-.234.78.144 1.885-.306 2.483-.45.598-.804.957-1.373.191 0 0 .957.115.876-.478a.632.632 0 0 1-.12-.876c.378-.45-.115-.478-.048-.784.067-.307.45-.747.048-.89-.402-.144-.282-.34-.478-.574-.197-.235-.45 0-.369-.58 0 0-.65.092-.698-.32-.048-.411.402-.555.32-.713a.475.475 0 0 0-.347-.234.484.484 0 0 0-.4.129c-.33.297-.353-.12-.272-.187a.958.958 0 0 1 .986-.392s-.12-.148-.144-.163c-.143-.11-.268-.071-.43-.11-.278-.062-.263-.54-.043-.66.392-.215-.082-.607-.393-.536l-.674.153c.182-.224.545-.956 1.081-.564.366.3.688.649.957 1.038 0 0 .923-.33 1.052.44.13.77 0 1.397.412 1.737.411.34 1.502.478 1.913.517a.572.572 0 0 0-.08-.153l-.417-.651c-.158-.249-.373-.479.076-.689.168-.072.044-.215 0-.33-.143-.354-.478-.608-.478-1.043 0-.153-.191-.134-.306-.177a2.923 2.923 0 0 1-1.502-1.062c.272-.091.516.172.75 0 0-.163-.148-.192-.248-.259a4.945 4.945 0 0 1-2.134-2.607c-.373-1.01-.823-1.971-1.875-2.469-.082-.033-.163-.138-.1-.186.449-.34-.03-.397-.173-.479a12.128 12.128 0 0 0-2.488-1.32c.077.21.263.297.407.416 2.555 2.143 3.483 4.89 2.636 8.071-.78 3.1-2.933 4.98-6.047 5.808-1 .259-2.024.139-3.033.273-3.574.478-6.976 3.435-7.866 6.932-.047.201-.09.407-.12.613.018-.438.073-.873.163-1.302a6.122 6.122 0 0 0-.521-3.827c-1.038-1.627-.421-4.306-.421-4.306a7.016 7.016 0 0 0-1.579 5.205c-1.435-3.033 1.24-5.573 2.574-6.597l.292-.096c-1.507 2.134-1.22 4.186-.168 6.277.177-.177.1-.373.087-.545-.067-.957-.278-1.914-.287-2.87a2.39 2.39 0 0 1 1.401-2.345c.096-.048.196-.168.292-.038.096.129 0 .215-.067.306-.193.19-.412.35-.65.478a1.373 1.373 0 0 0-.479 1.737c.168-.115 0-.263.043-.392.053-.264.029-.575.45-.541.148 0 .225-.11.253-.249a.88.88 0 0 1 .345-.478c.115-.1.306-.105.282.062-.033.277.148.612-.177.842-.143.105-.282.301-.153.44.13.139.325.043.478-.105.06-.048.124-.09.192-.124.062.478-.263.564-.636.64a.952.952 0 0 0 .478.063c.115 0 .2-.259.335-.043.057.095.134.2.086.31a.357.357 0 0 1-.407.187c-.052 0-.11-.067-.158 0 .378.292.804.1 1.115-.478a1.88 1.88 0 0 0-.143-2c-.134-.24-.278-.478-.412-.713-.076-.139-.191-.31 0-.42a.504.504 0 0 1 .55.033c.584.382.795.335 1.158-.311.201-.354.33-.479.479.062.191-.2.26-.486.181-.751a2.293 2.293 0 0 1-.047-.77c.028-.149.076-.302.22-.354.143-.053.22.09.267.205.048.115.173.12.244 0 .113-.15.21-.31.292-.478.244-.54.24-.54.861-.87.278.655-.32.994-.574 1.616h.03a6.727 6.727 0 0 0 1.98-1.626c.154-.2.29-.413.406-.637.29-.63.453-1.311.479-2.004.194.233.327.51.387.808.048.183.061.373.039.56a2.622 2.622 0 0 1-.182.718c.106-.113.203-.233.292-.36.137-.203.248-.423.33-.655a1.658 1.658 0 0 0-.407-1.64 1.981 1.981 0 0 0-.43-.345l-.053-.015.062.03a3.433 3.433 0 0 1 1.78 1.779 4.62 4.62 0 0 1 .34 3c-.479 1.497-1.981 1.798-3.35 2.19-1.655.48-4.042 1.33-4.305 2.67 1.593-2.344 5.262-1.708 7.564-2.626 1.688-.68 2.392-2.053 2.53-3.751.053-.512.058-2.019.058-2.019 1.263 2.694.76 5.454-2.531 6.497-.925.228-1.865.388-2.813.478-3.306.55-5.655 2.407-7.2 5.344a.756.756 0 0 0-.063.182c0 .024 0 .058.03.096.214-.11.296-.335.43-.507a9.093 9.093 0 0 1 7.43-3.828 7.825 7.825 0 0 0 7.587-8.692 3.759 3.759 0 0 0-1.248-2.43c-1.254-1.053-3.35-1.077-4.746-.321-.694.378-1.215.956-2.034 1.08-.167.025-.363.13-.478-.08-.115-.211 0-.288.067-.412s.11-.215.225-.421l.555.282s-.268-.851 0-1.071c.268-.22 1.01-.383.507.344 0 0 .426-.454.617-.378.192.077.077.22.077.22a.722.722 0 0 0 .612-.373 1.08 1.08 0 0 0 1.22-.631s-.866.315-.957-.144c-.09-.46 2.526-.813 3.66.622-.206-.258-.258-.55-.536-.77a2.575 2.575 0 0 0-1.12-.479 4.436 4.436 0 0 0-2.229.254c-1.148.397-1.258.24-1.267.186a.401.401 0 0 1 .067-.076c.626-.225.956-.78 1.349-1.24a.747.747 0 0 1 .918-.11c-.182-.406-.095-.52.283-.44 1.342.27 2.657.665 3.927 1.178a16.636 16.636 0 0 1 9.09 10.903c-.006.085-.017.17-.033.253a17.162 17.162 0 0 0-4.205-5.97c.478.66 1.023 1.291 1.52 1.947a14.9 14.9 0 0 1 3.173 7.597c.033.306.048.612.057.919A16.444 16.444 0 0 1 29.916 29.9c-.22.225-.45.44-.684.646l-.88.727zM3.086 24.74a16.42 16.42 0 0 1-.875-2.961C.857 14.845 3.086 9.2 8.64 4.86c.222-.19.515-.274.804-.23.59.051 1.185.043 1.775-.024l1.693-.162a4.31 4.31 0 0 1-.957 1.224.434.434 0 0 1-.708.048c-.234-.21-.402-.478-.808-.12-.244.197-.747.063-1.125.182a6.935 6.935 0 0 0-3.276 2.465c-2.942 3.646-3.995 7.808-3.349 12.44.112.766.291 1.522.536 2.257a.12.12 0 0 0 .11.1c-.507-2.98-.536-5.908.392-8.807-.024.343.03.686.158 1.005.225.507.718.87.818 1.435.1.565-.2 1.01-.387 1.464-.416 1-.957 2.143-.957 3.248 0 0 1.526-3.736 2.536-4.645.478-.435.167-.828-.149-1.163a3.074 3.074 0 0 1-1.023-2.425c.01-.368.059-.733.143-1.091 0-.062.043-.12.062-.177A7.483 7.483 0 0 1 9.65 7.162a6.3 6.3 0 0 1 1.206-.263c.186-.048.38-.057.57-.029a3.917 3.917 0 0 0-.833 1.144c-.507 1.11-.436 1.564-.436 1.564s.307-.282.479-.177c-.077.45-.144.923-.24 1.387a.956.956 0 0 1-.727.852c-.368.105-.574.478-.775.804a.702.702 0 0 1-.526.34c-.665.129-1.316-.13-1.98-.039a1.332 1.332 0 0 0-1.1 1.565c.042-.326.147-.479.396-.479.249 0 .067.273.187.373.105 0 .11-.081.134-.153.024-.072.105-.225.234-.191.13.033.081.172.072.277-.01.106-.067.287.1.412.264-.297.397-.723.823-.857.096-.028.182-.076.273 0 .09.077.072.201 0 .307-.139.268-.388.478-.249.87.072.196-.306.311-.55.479.655.024 1.09-.445 1.186-1.24a.866.866 0 0 1 .455-.817c.521-.273.478.291.689.444.081.058.086.11.057.158l-.162.134-.067.053-.149.13c-4.133 3.554-4.88 7.51-4.88 7.51.1-.392 1.369-1.789 1.369-1.789-1.66 4.306 1.626 8.52 1.626 8.52a8.448 8.448 0 0 1-.803-3.214c0-1.005.363-1.641.923-2.44a4.012 4.012 0 0 0 .66-1.589c.058-.325.254-1.478-.033-1.765a3.826 3.826 0 0 1 .42 4.454c-1.363 2.67-.033 4.306-.033 4.306-.191-.91.263-2.665.263-2.665a3.66 3.66 0 0 0 1.995 3.162c.708.713 1.54.866 2.603.163-.368.957 0 1.598.521 2.206.58.603.707 1.51.316 2.248-.095.168-.186.34-.402.383-.138-.096-.038-.206-.028-.306a2.076 2.076 0 0 0-.704-1.914 1.355 1.355 0 0 1-.545-1.402c.048-.253 0-.354-.292-.282a1.909 1.909 0 0 1-1.162-.072c-.115.082-.072.158-.048.23.148.387-.077.378-.335.306a3.789 3.789 0 0 1-1.655-1.048c-.096-.095-.168-.296-.33-.22-.163.077-.072.263-.053.397.057.35.137.695.239 1.034.134.34.24.69.316 1.048-.196-.149-.388-.297-.589-.436a14.668 14.668 0 0 1-2.732-2.512 16.547 16.547 0 0 1-2.258-3.784zM16.482 9.65c-.072.178-.1.37-.186.546-.211.417-.53.769-.924 1.02a4.748 4.748 0 0 1-3.425.478 3.44 3.44 0 0 0 2.248-1.938c.546-1.435.933-2.526 2.727-3.095-.08.042-.156.093-.225.153-.186.138-.362.29-.526.454a3.24 3.24 0 0 0-.674 1.005c-.158.373-.201.775-.321 1.158a3.58 3.58 0 0 1-1.115 1.655 1.08 1.08 0 0 1-.411.24s2.258-.288 2.832-1.675zm-5.11-1.674c.627-.196 1.206 0 1.833-.048a2.65 2.65 0 0 0 .986-.344s-.479.9-1.22.875c-.742-.023-1.952-.244-2.627.67 0 0 .096-1.579 1.359-2.282 0 0 .22-.153.736.043a2.929 2.929 0 0 0-1.636 1.354c.072-.134.417-.215.565-.268h.005zm3.622-1.172c.38-.2.7-.5.924-.866-.087.144-.063.407-.163.58-.224.33-.548.579-.923.712a2.762 2.762 0 0 1-.512.182c-.082.024-.632 0-.641 0 .181-.158.416-.263.588-.44.22-.227.34-.532.335-.847 0-.555.163-1.177.741-1.392-.511.181-.043 1.617-.354 2.071h.005zm-.397-3.727c-.057.163-.163.244-.325.177l-1.656-.397a.766.766 0 0 1 .756-.287c.345.062.685.163 1.024.258.1.034.268.053.196.25h.005zm-.56 1.029c.119.104.255.185.402.24-1.306-.594-2.741-.144-4.205-.48.531-.349.957-.626 1.536-.416.17.052.344.088.521.106.613.081 1.278-.015 1.746.55zm-.956 4.56c.3-.037.59-.127.856-.269.158-.086.588-.33.631-.54-.406 1.913-1.708 2.186-1.708 2.186s-.89-.024-.11-.206a2.025 2.025 0 0 0 1.173-1.134s-.292.479-1.302.421a3.17 3.17 0 0 0-1.67.335c.14-.995 1.508-.722 2.149-.794h-.02zm2.545-1.718s-.11.028.205-.326c.194-.219.307-.497.321-.789 0-1.053.68-1.115.68-1.115-.206.149-.254.55-.254.904a1.802 1.802 0 0 1-.21.732c.377 0 .904-.598.904-.598-.091.838-1.627 1.192-1.627 1.192h-.02zm1.588-3.603c0-.234.139-.363.359-.344a.282.282 0 0 1 .244.349c0 .206-.115.364-.335.387-.22.024-.263-.19-.249-.392h-.019zm.718.043a.514.514 0 0 0-.067-.445.48.48 0 0 0-.479-.1.994.994 0 0 0-.478.244c.12-.14.275-.246.45-.306a.506.506 0 0 1 .679.656.872.872 0 0 1-.34.44c.11-.149.197-.313.254-.489h-.02zm-1.196-1.004a2.633 2.633 0 0 1-2.158.071c-.086-.033-.21-.038-.215-.158-.005-.12.115-.138.205-.157a16.674 16.674 0 0 1 4.995-.364c.038 0 .072.043.134.081l-.775.503a.242.242 0 0 1-.268 0 2.118 2.118 0 0 0-1.9.024h-.018z"/><path fill="#E21624" d="M14.568 15.109s.957-1.78 2.637-2.35c1.679-.569 2.09-1.239 2.478-1.808 0 0 .478 1.55-1.55 3.019 0 0 2.97-.177 1.602-4.75a3.54 3.54 0 0 1-2.272 2.712c-1.99.67-2.737 2.66-2.895 3.177zM1.455 53.664a1.1 1.1 0 0 0-.478-.105c-.166 0-.33.038-.479.11a.876.876 0 0 0-.34.316.921.921 0 0 0-.12.478v.929a.919.919 0 0 0 .12.478c.08.138.198.25.34.32.148.075.313.113.479.11.166.003.33-.034.478-.11a.83.83 0 0 0 .34-.306.887.887 0 0 0 .12-.478.105.105 0 0 0-.034-.081.108.108 0 0 0-.077-.03h-.273a.163.163 0 0 0-.076 0 .128.128 0 0 0-.034.082.428.428 0 0 1-.12.316.472.472 0 0 1-.33.115.448.448 0 0 1-.334-.12.413.413 0 0 1-.12-.31v-.958a.42.42 0 0 1 .12-.315.474.474 0 0 1 .335-.12c.12-.003.239.04.33.12a.424.424 0 0 1 .12.315c0 .03.012.06.033.082a.117.117 0 0 0 .076.028h.355l.023-.057v-.038a.858.858 0 0 0-.12-.479.842.842 0 0 0-.334-.292zm2.201.01a1.06 1.06 0 0 0-.957 0 .883.883 0 0 0-.345.33.973.973 0 0 0-.12.479v.851a.979.979 0 0 0 .12.479c.081.142.2.258.345.334l.033-.066-.033.066c.148.076.312.116.478.115.166 0 .33-.04.479-.115a.88.88 0 0 0 .34-.334.966.966 0 0 0 .124-.479v-.851a.898.898 0 0 0-.465-.809zm-.034.813v.871a.478.478 0 0 1-.129.345.515.515 0 0 1-.68 0 .481.481 0 0 1-.124-.345v-.87a.48.48 0 0 1 .125-.35.444.444 0 0 1 .34-.129.476.476 0 0 1 .339.13c.088.093.135.22.13.348zm2.728-.899h-.274a.098.098 0 0 0-.08.033.115.115 0 0 0-.034.082v1.574l-.995-1.627a.14.14 0 0 0-.106-.057h-.268a.101.101 0 0 0-.081.033.118.118 0 0 0-.029.082v2.435c-.001.03.01.059.029.081.023.02.052.03.081.029h.273c.03.001.06-.01.081-.029a.121.121 0 0 0 .034-.081v-1.58l1 1.632a.119.119 0 0 0 .105.053h.263a.102.102 0 0 0 .111-.11v-2.435c0-.03-.01-.06-.03-.082a.098.098 0 0 0-.08-.033zm1.922.076a1.114 1.114 0 0 0-.956.005.81.81 0 0 0-.34.316.921.921 0 0 0-.12.478v.929a.919.919 0 0 0 .12.478c.077.14.196.252.34.32.148.076.312.113.478.11.166.003.33-.035.478-.11a.78.78 0 0 0 .335-.306.87.87 0 0 0 .12-.478.095.095 0 0 0-.029-.081.107.107 0 0 0-.076-.03h-.278a.14.14 0 0 0-.076 0 .088.088 0 0 0-.034.082.429.429 0 0 1-.124.316.521.521 0 0 1-.66 0 .402.402 0 0 1-.12-.311v-.957a.407.407 0 0 1 .12-.316.479.479 0 0 1 .33-.12.443.443 0 0 1 .33.12.429.429 0 0 1 .124.316.087.087 0 0 0 .034.082c.02.019.048.03.076.028h.359v-.1a.866.866 0 0 0-.12-.479.806.806 0 0 0-.31-.292zm1.187-.076h-.273a.101.101 0 0 0-.081.033.097.097 0 0 0-.029.082v2.435c-.004.03.007.06.029.081.022.02.051.03.081.029h.273a.114.114 0 0 0 .081-.029.093.093 0 0 0 .029-.081v-2.435a.098.098 0 0 0-.029-.082.099.099 0 0 0-.081-.033zm2.177 0h-1.062a.566.566 0 0 0-.24.048.671.671 0 0 0-.325.325.698.698 0 0 0-.048.24v1.435a.697.697 0 0 0 .048.239.627.627 0 0 0 .325.326.58.58 0 0 0 .24.047h1.062a.117.117 0 0 0 .09-.034.136.136 0 0 0 .039-.095v-.249a.13.13 0 0 0-.129-.134h-1.062a.081.081 0 0 1-.072-.029.107.107 0 0 1-.029-.071v-.479h1.163a.104.104 0 0 0 .09-.033.138.138 0 0 0 .039-.096v-.249a.14.14 0 0 0-.038-.095.123.123 0 0 0-.091-.039h-1.163v-.478c0-.027.01-.053.029-.072a.094.094 0 0 1 .072-.029h1.062a.14.14 0 0 0 .09-.033.138.138 0 0 0 .039-.096v-.253a.122.122 0 0 0-.038-.091.125.125 0 0 0-.091-.005zm2.373 2.516-.479-1.019a.688.688 0 0 0 .33-.234.767.767 0 0 0 .149-.478.856.856 0 0 0-.1-.412.724.724 0 0 0-.283-.277.839.839 0 0 0-.416-.1h-.957a.114.114 0 0 0-.115.114v2.435a.096.096 0 0 0 .034.081c.022.02.051.03.08.03h.274c.03 0 .058-.01.08-.03a.114.114 0 0 0 .03-.08v-.996h.416l.478 1.038c.01.02.025.039.043.053h.35a.089.089 0 0 0 .071-.024.102.102 0 0 0 .034-.077v-.038l-.02.014zm-1.393-2.066h.517a.327.327 0 0 1 .248.096c.066.066.1.156.097.248a.334.334 0 0 1-.091.244.35.35 0 0 1-.254.091h-.517v-.68zm3.072-.368a.993.993 0 0 0-.478-.11c-.166 0-.33.037-.479.11a.838.838 0 0 0-.34.32.907.907 0 0 0-.12.478v.924a.91.91 0 0 0 .12.478c.08.138.198.25.34.32l.034-.066-.034.067c.149.074.313.112.479.11.252.014.5-.072.688-.24a.92.92 0 0 0 .259-.693v-.479c0-.03-.013-.06-.034-.081a.114.114 0 0 0-.081-.029h-.813a.121.121 0 0 0-.082.029.12.12 0 0 0-.033.081v.225c.001.03.013.06.033.081.023.02.052.03.082.03h.42v.214a.348.348 0 0 1-.114.283.448.448 0 0 1-.32.1.48.48 0 0 1-.345-.12.406.406 0 0 1-.125-.315v-.957a.427.427 0 0 1 .12-.316.483.483 0 0 1 .335-.12.486.486 0 0 1 .33.115.375.375 0 0 1 .12.292v.034a.113.113 0 0 0 .028.081c.023.02.052.03.082.029h.272c.03.001.06-.01.082-.029a.12.12 0 0 0 .033-.081.851.851 0 0 0-.12-.44.807.807 0 0 0-.339-.326zm2.454-.082H17.08a.577.577 0 0 0-.239.048.667.667 0 0 0-.325.325.675.675 0 0 0-.048.24v1.435a.61.61 0 0 0 .182.435.594.594 0 0 0 .431.177h1.061a.115.115 0 0 0 .091-.034.135.135 0 0 0 .038-.095v-.249a.125.125 0 0 0-.038-.096.118.118 0 0 0-.09-.038H17.08a.066.066 0 0 1-.067-.029.09.09 0 0 1-.033-.071v-.479h1.162a.1.1 0 0 0 .091-.033.137.137 0 0 0 .038-.096v-.249a.135.135 0 0 0-.038-.095.115.115 0 0 0-.09-.039H16.96v-.478c0-.028.012-.054.033-.072a.082.082 0 0 1 .067-.029h1.062a.136.136 0 0 0 .091-.033.137.137 0 0 0 .038-.096v-.253a.13.13 0 0 0-.129-.13l.02.034zm3.33.368a.746.746 0 0 0-.292-.287.856.856 0 0 0-.42-.1h-.958a.114.114 0 0 0-.114.115v2.44c0 .03.012.059.033.08.022.02.052.031.081.03h.273c.03.003.06-.008.081-.03a.099.099 0 0 0 .03-.08v-.957h.568a.957.957 0 0 0 .431-.096.72.72 0 0 0 .292-.282.798.798 0 0 0 .105-.416.857.857 0 0 0-.11-.417zm-1.296.067h.535a.336.336 0 0 1 .364.359.336.336 0 0 1-.364.354h-.535v-.713zm3.521 2.091-.794-2.445a.124.124 0 0 0-.044-.057.123.123 0 0 0-.071 0h-.36a.106.106 0 0 0-.066 0 .133.133 0 0 0-.048.057l-.785 2.44v.034c-.002.03.01.061.034.081a.111.111 0 0 0 .072 0h.292a.127.127 0 0 0 .067 0 .138.138 0 0 0 .047-.057l.115-.378h.919l.115.378a.13.13 0 0 0 .047.057.127.127 0 0 0 .067 0h.297a.111.111 0 0 0 .072 0 .093.093 0 0 0 .033-.081v-.034l-.01.005zm-.761-.722h-.655l.33-1.053.325 1.053zm2.493-1.804h-.335a.109.109 0 0 0-.062 0 .087.087 0 0 0-.048.048l-.479.957-.478-.957a.117.117 0 0 0-.048-.048.109.109 0 0 0-.062 0h-.297a.111.111 0 0 0-.072 0 .12.12 0 0 0-.033.076v.048l.741 1.397v1c0 .064.052.115.115.115h.273c.03 0 .06-.012.081-.033a.118.118 0 0 0 .029-.082v-1l.751-1.401v-.1l-.076-.034v.014zm2.363 0h-.268a.137.137 0 0 0-.105.048l-.574.86-.574-.855a.126.126 0 0 0-.106-.058h-.272a.1.1 0 0 0-.082.034.12.12 0 0 0-.033.081v2.435c0 .03.012.06.033.081.023.02.052.03.082.03h.272c.03 0 .06-.01.082-.03a.108.108 0 0 0 .028-.08V54.53l.398.594c.025.031.064.05.105.052h.134a.133.133 0 0 0 .11-.057l.387-.593v1.612c-.002.03.01.06.034.081.022.02.051.03.081.029h.268a.114.114 0 0 0 .081-.029.1.1 0 0 0 .034-.081v-2.435a.115.115 0 0 0-.115-.115zm2.177 0H28.92a.602.602 0 0 0-.24.048.662.662 0 0 0-.32.325.616.616 0 0 0-.048.24v1.435a.615.615 0 0 0 .368.565.618.618 0 0 0 .24.047h1.062a.114.114 0 0 0 .097-.033.113.113 0 0 0 .032-.096v-.249a.126.126 0 0 0-.033-.096.142.142 0 0 0-.096-.038H28.92a.073.073 0 0 1-.067-.029.09.09 0 0 1-.029-.071v-.479h1.158a.118.118 0 0 0 .096-.033.125.125 0 0 0 .033-.096v-.249a.126.126 0 0 0-.033-.095.138.138 0 0 0-.096-.039H28.81v-.478a.1.1 0 0 1 .096-.1h1.062a.154.154 0 0 0 .096-.034.133.133 0 0 0 .033-.096v-.253a.117.117 0 0 0-.033-.091.138.138 0 0 0-.096-.005zm2.301 0h-.249a.14.14 0 0 0-.095.038.115.115 0 0 0-.034.091v1.593l-.847-1.646a.219.219 0 0 0-.057-.052.126.126 0 0 0-.072 0h-.363a.142.142 0 0 0-.096.038.118.118 0 0 0-.034.091v2.392a.12.12 0 0 0 .033.097.115.115 0 0 0 .097.032h.248a.126.126 0 0 0 .096-.033.137.137 0 0 0 .038-.096V54.53l.857 1.646c.01.025.029.045.052.058a.249.249 0 0 0 .077 0h.349c.035.003.07-.01.096-.034a.142.142 0 0 0 .038-.096v-2.392a.122.122 0 0 0-.038-.09.13.13 0 0 0-.096-.034zm2.105 0h-1.717a.142.142 0 0 0-.096.038.102.102 0 0 0-.034.091v.24a.113.113 0 0 0 .034.095.15.15 0 0 0 .096.034h.602v2.018c0 .036.014.07.039.096a.117.117 0 0 0 .09.034h.254a.13.13 0 0 0 .096-.034.155.155 0 0 0 .033-.096V54.1h.603a.152.152 0 0 0 .096-.034.14.14 0 0 0 .038-.095v-.254a.118.118 0 0 0-.038-.09.133.133 0 0 0-.096-.04zm1.985 1.54a.89.89 0 0 0-.287-.244 4.03 4.03 0 0 0-.42-.186c-.168-.062-.288-.115-.364-.148a.492.492 0 0 1-.148-.115.216.216 0 0 1-.043-.149.223.223 0 0 1 .09-.2.473.473 0 0 1 .297-.077c.13-.007.258.03.364.105a.32.32 0 0 1 .12.254v.067a.109.109 0 0 0 .028.081c.022.02.051.032.081.034h.273a.124.124 0 0 0 .077-.034.099.099 0 0 0 .033-.081v-.072a.702.702 0 0 0-.124-.416.822.822 0 0 0-.34-.278 1.247 1.247 0 0 0-.478-.095 1.027 1.027 0 0 0-.646.191.677.677 0 0 0-.25.545.639.639 0 0 0 .116.383.83.83 0 0 0 .277.24c.138.07.28.132.426.186.12.046.236.099.35.158a.48.48 0 0 1 .167.124c.03.042.046.092.048.144a.268.268 0 0 1-.101.21.476.476 0 0 1-.325.086.67.67 0 0 1-.388-.1.293.293 0 0 1-.124-.24v-.11a.115.115 0 0 0-.115-.114h-.292a.101.101 0 0 0-.081.033.124.124 0 0 0-.034.082v.1a.734.734 0 0 0 .125.416c.088.12.207.212.344.268.161.064.334.095.507.091.245.014.487-.057.684-.2a.689.689 0 0 0 .264-.56.669.669 0 0 0-.11-.379zM.015 44.981H36.48v-.306H.015m0-.608V38.03h1.368a5.366 5.366 0 0 1 1.555.181c.407.117.785.321 1.105.599a2.965 2.965 0 0 1-.038 4.492c-.323.276-.7.482-1.105.607-.5.13-1.015.187-1.531.168l-1.354-.01zM1 43.211h.445c.371.009.742-.035 1.1-.13.291-.089.561-.235.795-.43a2.142 2.142 0 0 0 0-3.21 2.87 2.87 0 0 0-1.914-.555H.981l.02 4.325zm14.894-.622h-2.665l-.694 1.478h-1.01l2.92-6.147h.315l2.818 6.147h-1.029l-.655-1.478zm-.369-.866-.957-2.076-.956 2.076h1.913zm8.354-.684a2.992 2.992 0 0 1 .956-2.21 3.108 3.108 0 0 1 2.259-.924 3.187 3.187 0 0 1 3.167 3.167 2.996 2.996 0 0 1-.957 2.23 3.225 3.225 0 0 1-4.397.105 2.995 2.995 0 0 1-1.028-2.368zm.928 0a2.26 2.26 0 0 0 3.856 1.651 2.364 2.364 0 0 0 0-3.268 2.282 2.282 0 0 0-3.21 0 2.194 2.194 0 0 0-.646 1.64v-.023zm6.267 3.076v-6.219h.301l4.201 4.148v-4.167h.904v6.219h-.23l-4.277-4.306v4.306zM8.713 41.958a1.986 1.986 0 0 0 1.52-1.31 1.988 1.988 0 0 0-.391-1.968c-.637-.56-1.617-.636-2.421-.646H5.914v6.033h.885v-5.3h.727c.856 0 1.842.344 1.947 1.33a1.09 1.09 0 0 1-.732 1.124c-.46.158-.95.218-1.435.177v.2l2.44 2.47h1.153l-2.186-2.11zm14.108 1.889a6.23 6.23 0 0 1-1.913.335 2.874 2.874 0 0 1-2.27-.812c-.6-.59-.91-1.415-.85-2.254 0-1.814 1.254-3.139 3.292-3.139a3.714 3.714 0 0 1 1.516.282v.637a4.248 4.248 0 0 0-1.56-.25 2.27 2.27 0 0 0-2.439 2.441c0 1.545.928 2.454 2.344 2.454.405.016.81-.039 1.196-.163v-1.975h-1.54v-.632h2.224v3.076zM.398 51.741H.015v-6.1h2.162a1.84 1.84 0 0 1 1.297.36 1.712 1.712 0 0 1 .038 2.458 1.971 1.971 0 0 1-1.335.388H.397v2.894zm1.798-3.258c.38.033.757-.085 1.048-.33.255-.235.396-.568.388-.914a1.229 1.229 0 0 0-.45-.99 1.651 1.651 0 0 0-1.052-.244H.398v2.478h1.798zm6.842-.268v-2.588h.383v6.1h-.383v-3.129H5.579v3.143h-.383v-6.1h.383v2.574zm7.842.426a3.04 3.04 0 1 1-3.039-3.076 3.085 3.085 0 0 1 3.038 3.076zm-5.704 0a2.67 2.67 0 1 0 2.665-2.717 2.713 2.713 0 0 0-2.665 2.717zm7.272-2.626v2.449h2.938v.373h-2.938v2.435h3.67v.479h-4.081v-6.11h4.081v.374zm11.779 5.726h-.392v-6.109h.392zm1.526-6.1h.541l1.77 2.622 1.77-2.622h.541l-2.014 2.986 2.119 3.114h-.536l-1.88-2.755-1.861 2.755h-.531l2.105-3.114zm-3.679 6.076-4.167-5.262v5.214h-.339V45.56l4.167 5.21v-5.129h.339z"/></g></g></svg>